<svg id="Layer_1" data-name="Layer 1" xmlns="http://www.w3.org/2000/svg" viewBox="0 0 543 132"><defs><style>.cls-1{font-size:119.29px;font-family:Montserrat-Bold, Montserrat;font-weight:700;letter-spacing:0.04em;}.cls-2{letter-spacing:0.02em;}.cls-3{letter-spacing:-0.01em;}.cls-4{letter-spacing:0.04em;}.cls-5{fill:#29abe2;}</style></defs><title>portal_logo</title><text class="cls-1" transform="translate(0 110.78) scale(1.04 1)"><tspan xml:space="preserve">P   </tspan><tspan class="cls-2" x="193.36" y="0">R</tspan><tspan class="cls-3" x="282.95" y="0">T</tspan><tspan class="cls-4" x="353.92" y="0">AL</tspan></text><path class="cls-5" d="M196.65,26.73a53.09,53.09,0,0,0-17-7.41,51.56,51.56,0,0,0-9.35-1.42,53.71,53.71,0,0,0-17.68,1.83A61.53,61.53,0,0,1,167.83,32.8a37.63,37.63,0,0,1,6.07.62,37.08,37.08,0,0,1,7.87,2.31,39.35,39.35,0,0,1-1.6,8A31.55,31.55,0,0,1,184,46a30.7,30.7,0,0,1,8.24,8.14q1-2.2,1.77-4.52c.5-1.46.93-2.94,1.3-4.42A53.44,53.44,0,0,0,196.65,26.73Zm-38.73,7.14a53.85,53.85,0,0,0-15.13-10.35,53.27,53.27,0,0,0-10-3.42,61.41,61.41,0,0,0-14.68,13.67c.8,0,1.61-.08,2.42-.08s1.72,0,2.59.09a38.64,38.64,0,0,1,20,7.19,39,39,0,0,1,6.1,5.44A30.75,30.75,0,0,1,164,40.93,53.43,53.43,0,0,0,157.92,33.87Zm-7.69,63.5a38,38,0,0,1-4.17,4.25c-.57.49-1.14,1-1.73,1.42a38.77,38.77,0,0,1-6.09-5.44A38.14,38.14,0,0,1,135,93.52a39,39,0,0,1-6.67-25.42,38,38,0,0,1,1.58-8A38.4,38.4,0,0,1,134.71,50a38,38,0,0,1,2.51-3.35,30.48,30.48,0,0,0-14.67-4.87l-.37,0a54.09,54.09,0,0,0-4.39,8,51.12,51.12,0,0,0-3.07,8.92,52.8,52.8,0,0,0-1.26,18.48c.17,1.63.42,3.25.74,4.88a57.45,57.45,0,0,0,1.41,5.57A53.53,53.53,0,0,0,137,116.23a52.19,52.19,0,0,0,7.67,4.26,54,54,0,0,0,11.23-7.59q1.83-1.61,3.48-3.33a53.27,53.27,0,0,0,5.88-7.32A30.51,30.51,0,0,1,150.23,97.37Z"/><path class="cls-5" d="M196.65,26.73a53.09,53.09,0,0,0-17-7.41,51.56,51.56,0,0,0-9.35-1.42,53.71,53.71,0,0,0-17.68,1.83A61.53,61.53,0,0,1,167.83,32.8a37.63,37.63,0,0,1,6.07.62,37.08,37.08,0,0,1,7.87,2.31,38.68,38.68,0,0,1,13.58,9.44A53.44,53.44,0,0,0,196.65,26.73Zm-53.86-3.21A52.83,52.83,0,0,0,128,34.43,38.4,38.4,0,0,1,143.1,41a38.45,38.45,0,0,1,14.82-7.1A53.85,53.85,0,0,0,142.79,23.52Zm2.59,80.24-1-.72a38.77,38.77,0,0,1-6.09-5.44A38.14,38.14,0,0,1,135,93.52a39,39,0,0,1-6.67-25.42,38,38,0,0,1,1.58-8A38.4,38.4,0,0,1,134.71,50a38,38,0,0,1,2.51-3.35,30.48,30.48,0,0,0-14.67-4.87l-.37,0a54.09,54.09,0,0,0-4.39,8,51.12,51.12,0,0,0-3.07,8.92,52.8,52.8,0,0,0-1.26,18.48c.17,1.63.42,3.25.74,4.88a57.45,57.45,0,0,0,1.41,5.57A53.53,53.53,0,0,0,137,116.23a52.19,52.19,0,0,0,7.67,4.26,54,54,0,0,0,11.23-7.59q1.83-1.61,3.48-3.33A38.53,38.53,0,0,1,145.38,103.76Z"/><path class="cls-5" d="M170.43,87.69a61.68,61.68,0,0,1-17.17,5.55,36.77,36.77,0,0,1-3,4.13,38,38,0,0,1-4.17,4.25c-.57.49-1.14,1-1.73,1.42a38.77,38.77,0,0,1-6.09-5.44,30.53,30.53,0,0,1-14.87,5.5A53.94,53.94,0,0,0,137,116.23a52.19,52.19,0,0,0,7.67,4.26,54,54,0,0,0,11.23-7.59q1.83-1.61,3.48-3.33a53.29,53.29,0,0,0,13-22.89C171.74,87,171.09,87.36,170.43,87.69Zm7.44-38.16a38.51,38.51,0,0,1-5.59,8.36,38.87,38.87,0,0,1-12,9.16c-.42.21-.85.41-1.28.6a38.52,38.52,0,0,1-7.78,2.56,32.16,32.16,0,0,1,0,4.28,30.77,30.77,0,0,1-3,11.33,52.68,52.68,0,0,0,9.27-1.71,54.9,54.9,0,0,0,16.65-7.9,53,53,0,0,0,8.05-6.95A61.17,61.17,0,0,0,177.87,49.53ZM164,40.93a53.65,53.65,0,0,0-40-22.12,54.08,54.08,0,0,0-8.64.12,52.81,52.81,0,0,0-25.94,9.61A53,53,0,0,0,91.4,46.89a52.52,52.52,0,0,0,3.35,8.8,30.89,30.89,0,0,1,11.8-10.63,38.19,38.19,0,0,1-1.89-8,38.54,38.54,0,0,1,13.41-3.32c.8,0,1.61-.08,2.42-.08s1.72,0,2.59.09a38.64,38.64,0,0,1,20,7.19,39,39,0,0,1,14,18.71,30.38,30.38,0,0,0,11.81-10.6A53.63,53.63,0,0,0,164,40.93Z"/><path class="cls-5" d="M170.43,87.69a61.68,61.68,0,0,1-17.17,5.55,36.77,36.77,0,0,1-3,4.13,38,38,0,0,1-4.17,4.25c-.57.49-1.14,1-1.73,1.42a38.32,38.32,0,0,1-14.8,7.14,53.31,53.31,0,0,0,7.51,6,52.19,52.19,0,0,0,7.67,4.26,54,54,0,0,0,11.23-7.59q1.83-1.61,3.48-3.33a53.29,53.29,0,0,0,13-22.89C171.74,87,171.09,87.36,170.43,87.69Zm1.85-29.8a38.87,38.87,0,0,1-12,9.16c-.42.21-.85.41-1.28.6A38.43,38.43,0,0,1,159.2,75a39.45,39.45,0,0,1-1.69,9.09,54.9,54.9,0,0,0,16.65-7.9c0-.07,0-.13,0-.2A53.7,53.7,0,0,0,172.28,57.89Zm-8.24-17a53.65,53.65,0,0,0-40-22.12,54.08,54.08,0,0,0-8.64.12,52.81,52.81,0,0,0-25.94,9.61A53,53,0,0,0,91.4,46.89a39,39,0,0,1,13.26-9.8,38.54,38.54,0,0,1,13.41-3.32c.8,0,1.61-.08,2.42-.08s1.72,0,2.59.09a38.64,38.64,0,0,1,20,7.19,39,39,0,0,1,14,18.71,30.38,30.38,0,0,0,11.81-10.6A53.63,53.63,0,0,0,164,40.93Z"/><path class="cls-5" d="M196.65,26.73a53.09,53.09,0,0,0-17-7.41,51.56,51.56,0,0,0-9.35-1.42c.14.26.28.52.41.79a30.53,30.53,0,0,1,3.15,14.73,37.08,37.08,0,0,1,7.87,2.31,39.35,39.35,0,0,1-1.6,8c-.1.33-.21.66-.32,1A38.44,38.44,0,0,1,160.27,67c-.42.21-.85.41-1.28.6a38.52,38.52,0,0,1-7.78,2.56,38.1,38.1,0,0,1-15,.2A31,31,0,0,0,139.77,86c1.14.07,2.29.11,3.43.11a49.88,49.88,0,0,0,5-.25,52.68,52.68,0,0,0,9.27-1.71,54.9,54.9,0,0,0,16.65-7.9,53.19,53.19,0,0,0,18.12-22.1q1-2.2,1.77-4.52c.5-1.46.93-2.94,1.3-4.42A53.44,53.44,0,0,0,196.65,26.73Zm-81.22-7.8a52.81,52.81,0,0,0-25.94,9.61A53,53,0,0,0,91.4,46.89a52.52,52.52,0,0,0,3.35,8.8c0,.11.1.23.16.34a54,54,0,0,0,10.25,14.33,60.84,60.84,0,0,1,3.72-20c-.18-.32-.35-.65-.51-1a39.32,39.32,0,0,1-3.71-12.31,38.21,38.21,0,0,1,7.79-2.55A30.61,30.61,0,0,1,114,22.37,29.54,29.54,0,0,1,115.43,18.93Zm15,65.58a38.89,38.89,0,0,1-2.09-16.41,38,38,0,0,1,1.58-8,30.48,30.48,0,0,1-12.12-10.33,51.12,51.12,0,0,0-3.07,8.92,52.8,52.8,0,0,0-1.26,18.48c.17,1.63.42,3.25.74,4.88a57.45,57.45,0,0,0,1.41,5.57,62.83,62.83,0,0,0,7.65,3.18A62.38,62.38,0,0,0,135,93.52,39,39,0,0,1,130.42,84.51Z"/><path class="cls-5" d="M196.65,26.73a53.09,53.09,0,0,0-17-7.41,38.26,38.26,0,0,1,2.08,16.41,39.35,39.35,0,0,1-1.6,8c-.1.33-.21.66-.32,1A38.44,38.44,0,0,1,160.27,67c-.42.21-.85.41-1.28.6a38.52,38.52,0,0,1-7.78,2.56,38.1,38.1,0,0,1-15,.2A31,31,0,0,0,139.77,86c1.14.07,2.29.11,3.43.11a49.88,49.88,0,0,0,5-.25,52.68,52.68,0,0,0,9.27-1.71,54.9,54.9,0,0,0,16.65-7.9,53.19,53.19,0,0,0,18.12-22.1q1-2.2,1.77-4.52c.5-1.46.93-2.94,1.3-4.42A53.44,53.44,0,0,0,196.65,26.73ZM108.37,49.4a39.32,39.32,0,0,1-3.71-12.31,38.44,38.44,0,0,1,1.53-16.49,53.22,53.22,0,0,0-16.7,7.94A53,53,0,0,0,91.4,46.89a52.52,52.52,0,0,0,3.35,8.8c0,.11.1.23.16.34a54,54,0,0,0,10.25,14.33,60.84,60.84,0,0,1,3.72-20C108.7,50.06,108.53,49.73,108.37,49.4Zm20,18.7a38.47,38.47,0,0,1-10.77-6.68,35.51,35.51,0,0,1-2.84-2.78,52.8,52.8,0,0,0-1.26,18.48,54.11,54.11,0,0,0,12.38,6.06c1.52.51,3,1,4.58,1.33A38.89,38.89,0,0,1,128.33,68.1Z"/></svg>