<svg id="Layer_1" data-name="Layer 1" xmlns="http://www.w3.org/2000/svg" viewBox="0 0 57.08 54.49"><defs><style>.cls-1{fill:#1781E0;}</style></defs><title>icon-logo</title><path class="cls-1" d="M60.28,10.74a28.17,28.17,0,0,0-9-3.93,27.36,27.36,0,0,0-5-.75,28.5,28.5,0,0,0-9.38,1A32.65,32.65,0,0,1,45,14a20,20,0,0,1,3.22.33,19.67,19.67,0,0,1,4.18,1.23,20.88,20.88,0,0,1-.85,4.27A16.74,16.74,0,0,1,53.59,21,16.29,16.29,0,0,1,58,25.27q.53-1.17.94-2.4c.27-.77.49-1.56.69-2.35A28.36,28.36,0,0,0,60.28,10.74ZM39.73,14.53a28.57,28.57,0,0,0-8-5.49,28.26,28.26,0,0,0-5.33-1.81,32.58,32.58,0,0,0-7.79,7.25c.42,0,.85,0,1.28,0s.91,0,1.37,0A20.5,20.5,0,0,1,31.87,18.3a20.68,20.68,0,0,1,3.24,2.89A16.31,16.31,0,0,1,43,18.28,28.35,28.35,0,0,0,39.73,14.53ZM35.65,48.22a20.16,20.16,0,0,1-2.21,2.25c-.3.26-.6.51-.92.75a20.57,20.57,0,0,1-3.23-2.89,20.24,20.24,0,0,1-1.72-2.16A20.7,20.7,0,0,1,24,32.69a20.15,20.15,0,0,1,.84-4.27,20.37,20.37,0,0,1,2.55-5.34,20.14,20.14,0,0,1,1.33-1.78A16.17,16.17,0,0,0,21,18.72h-.2a28.7,28.7,0,0,0-2.33,4.23,27.12,27.12,0,0,0-1.63,4.73,28,28,0,0,0-.67,9.81c.09.86.22,1.72.39,2.59a30.48,30.48,0,0,0,.75,3A28.4,28.4,0,0,0,28.66,58.23a27.69,27.69,0,0,0,4.07,2.26,28.64,28.64,0,0,0,6-4q1-.85,1.85-1.77a28.26,28.26,0,0,0,3.12-3.88A16.19,16.19,0,0,1,35.65,48.22Z" transform="translate(-3.36 -6)"/><path class="cls-1" d="M60.28,10.74a28.17,28.17,0,0,0-9-3.93,27.36,27.36,0,0,0-5-.75,28.5,28.5,0,0,0-9.38,1A32.65,32.65,0,0,1,45,14a20,20,0,0,1,3.22.33,19.67,19.67,0,0,1,4.18,1.23,20.52,20.52,0,0,1,7.21,5A28.36,28.36,0,0,0,60.28,10.74ZM31.71,9a28,28,0,0,0-7.83,5.79,20.37,20.37,0,0,1,8,3.47,20.4,20.4,0,0,1,7.86-3.77A28.57,28.57,0,0,0,31.71,9Zm1.37,42.57-.56-.38a20.57,20.57,0,0,1-3.23-2.89,20.24,20.24,0,0,1-1.72-2.16A20.7,20.7,0,0,1,24,32.69a20.15,20.15,0,0,1,.84-4.27,20.37,20.37,0,0,1,2.55-5.34,20.14,20.14,0,0,1,1.33-1.78A16.17,16.17,0,0,0,21,18.72h-.2a28.7,28.7,0,0,0-2.33,4.23,27.12,27.12,0,0,0-1.63,4.73,28,28,0,0,0-.67,9.81c.09.86.22,1.72.39,2.59a30.48,30.48,0,0,0,.75,3A28.4,28.4,0,0,0,28.66,58.23a27.69,27.69,0,0,0,4.07,2.26,28.64,28.64,0,0,0,6-4q1-.85,1.85-1.77A20.44,20.44,0,0,1,33.08,51.61Z" transform="translate(-3.36 -6)"/><path class="cls-1" d="M46.37,43.09A32.73,32.73,0,0,1,37.26,46a19.51,19.51,0,0,1-1.61,2.19,20.16,20.16,0,0,1-2.21,2.25c-.3.26-.6.51-.92.75a20.57,20.57,0,0,1-3.23-2.89,16.2,16.2,0,0,1-7.89,2.92,28.62,28.62,0,0,0,7.25,7,27.69,27.69,0,0,0,4.07,2.26,28.64,28.64,0,0,0,6-4q1-.85,1.85-1.77a28.27,28.27,0,0,0,6.88-12.15Zm3.95-20.25a20.43,20.43,0,0,1-3,4.44A20.62,20.62,0,0,1,41,32.14l-.68.32a20.44,20.44,0,0,1-4.13,1.36,17.06,17.06,0,0,1,0,2.27,16.33,16.33,0,0,1-1.58,6,28,28,0,0,0,4.92-.91A29.13,29.13,0,0,0,48.35,37a28.09,28.09,0,0,0,4.27-3.69A32.45,32.45,0,0,0,50.32,22.84ZM43,18.28A28.46,28.46,0,0,0,21.77,6.54a28.69,28.69,0,0,0-4.58.06A28,28,0,0,0,3.43,11.7a28.12,28.12,0,0,0,1,9.74,27.87,27.87,0,0,0,1.78,4.67,16.39,16.39,0,0,1,6.26-5.64,20.26,20.26,0,0,1-1-4.23,20.45,20.45,0,0,1,7.12-1.76c.42,0,.85,0,1.28,0s.91,0,1.37,0A20.5,20.5,0,0,1,31.87,18.3a20.69,20.69,0,0,1,7.44,9.93,16.12,16.12,0,0,0,6.27-5.62A28.46,28.46,0,0,0,43,18.28Z" transform="translate(-3.36 -6)"/><path class="cls-1" d="M46.37,43.09A32.73,32.73,0,0,1,37.26,46a19.51,19.51,0,0,1-1.61,2.19,20.16,20.16,0,0,1-2.21,2.25c-.3.26-.6.51-.92.75A20.33,20.33,0,0,1,24.67,55a28.28,28.28,0,0,0,4,3.21,27.69,27.69,0,0,0,4.07,2.26,28.64,28.64,0,0,0,6-4q1-.85,1.85-1.77a28.27,28.27,0,0,0,6.88-12.15Zm1-15.81A20.62,20.62,0,0,1,41,32.14l-.68.32a20.39,20.39,0,0,1,.11,3.91,20.93,20.93,0,0,1-.9,4.82A29.13,29.13,0,0,0,48.35,37s0-.07,0-.11A28.49,28.49,0,0,0,47.35,27.28Zm-4.37-9A28.46,28.46,0,0,0,21.77,6.54a28.69,28.69,0,0,0-4.58.06A28,28,0,0,0,3.43,11.7a28.12,28.12,0,0,0,1,9.74,20.68,20.68,0,0,1,7-5.2,20.45,20.45,0,0,1,7.12-1.76c.42,0,.85,0,1.28,0s.91,0,1.37,0A20.5,20.5,0,0,1,31.87,18.3a20.69,20.69,0,0,1,7.44,9.93,16.12,16.12,0,0,0,6.27-5.62A28.46,28.46,0,0,0,43,18.28Z" transform="translate(-3.36 -6)"/><path class="cls-1" d="M60.28,10.74a28.17,28.17,0,0,0-9-3.93,27.36,27.36,0,0,0-5-.75c.07.14.15.28.22.42a16.2,16.2,0,0,1,1.67,7.82,19.67,19.67,0,0,1,4.18,1.23,20.88,20.88,0,0,1-.85,4.27c-.05.18-.11.35-.17.53A20.39,20.39,0,0,1,41,32.14l-.68.32a20.44,20.44,0,0,1-4.13,1.36,20.22,20.22,0,0,1-8,.11,16.43,16.43,0,0,0,1.89,8.25c.6,0,1.22.06,1.82.06a26.47,26.47,0,0,0,2.67-.13,28,28,0,0,0,4.92-.91A29.13,29.13,0,0,0,48.35,37,28.22,28.22,0,0,0,58,25.27q.53-1.17.94-2.4c.27-.77.49-1.56.69-2.35A28.36,28.36,0,0,0,60.28,10.74ZM17.19,6.6A28,28,0,0,0,3.43,11.7a28.12,28.12,0,0,0,1,9.74,27.87,27.87,0,0,0,1.78,4.67l.08.18a28.62,28.62,0,0,0,5.44,7.6,32.28,32.28,0,0,1,2-10.6c-.1-.17-.19-.34-.27-.52a20.86,20.86,0,0,1-2-6.53,20.27,20.27,0,0,1,4.13-1.35,16.24,16.24,0,0,1,.83-6.46A15.67,15.67,0,0,1,17.19,6.6Zm8,34.8A20.63,20.63,0,0,1,24,32.69a20.15,20.15,0,0,1,.84-4.27,16.17,16.17,0,0,1-6.43-5.48,27.12,27.12,0,0,0-1.63,4.73,28,28,0,0,0-.67,9.81c.09.86.22,1.72.39,2.59a30.48,30.48,0,0,0,.75,3,33.34,33.34,0,0,0,4.06,1.69,33.1,33.1,0,0,0,6.23,1.47A20.71,20.71,0,0,1,25.14,41.4Z" transform="translate(-3.36 -6)"/><path class="cls-1" d="M60.28,10.74a28.17,28.17,0,0,0-9-3.93,20.3,20.3,0,0,1,1.1,8.71,20.88,20.88,0,0,1-.85,4.27c-.05.18-.11.35-.17.53A20.39,20.39,0,0,1,41,32.14l-.68.32a20.44,20.44,0,0,1-4.13,1.36,20.22,20.22,0,0,1-8,.11,16.43,16.43,0,0,0,1.89,8.25c.6,0,1.22.06,1.82.06a26.47,26.47,0,0,0,2.67-.13,28,28,0,0,0,4.92-.91A29.13,29.13,0,0,0,48.35,37,28.22,28.22,0,0,0,58,25.27q.53-1.17.94-2.4c.27-.77.49-1.56.69-2.35A28.36,28.36,0,0,0,60.28,10.74Zm-46.84,12a20.86,20.86,0,0,1-2-6.53,20.4,20.4,0,0,1,.81-8.75A28.24,28.24,0,0,0,3.43,11.7a28.12,28.12,0,0,0,1,9.74,27.87,27.87,0,0,0,1.78,4.67l.08.18a28.62,28.62,0,0,0,5.44,7.6,32.28,32.28,0,0,1,2-10.6C13.62,23.12,13.53,22.95,13.44,22.77ZM24,32.69a20.41,20.41,0,0,1-5.71-3.54,18.84,18.84,0,0,1-1.51-1.48,28,28,0,0,0-.67,9.81,28.71,28.71,0,0,0,6.57,3.22c.81.27,1.61.51,2.43.71A20.63,20.63,0,0,1,24,32.69Z" transform="translate(-3.36 -6)"/></svg>