<?xml version="1.0" encoding="utf-8"?>
<!-- Generator: Adobe Illustrator 21.0.2, SVG Export Plug-In . SVG Version: 6.00 Build 0)  -->
<svg version="1.1" xmlns="http://www.w3.org/2000/svg" xmlns:xlink="http://www.w3.org/1999/xlink" x="0px" y="0px"
	 viewBox="0 0 50 50" style="enable-background:new 0 0 50 50;" xml:space="preserve">
<style type="text/css">
	.st0{fill:#187AD9;}
	.st1{display:none;}
	.st2{display:inline;}
</style>
<g id="Layer_1">
	<g>
		<path class="st0" d="M19.3,30.7c-0.7-0.7-1.4-1.4-2-2.1c-1.1-1.2-2.1-2.4-3-3.6c0,1.7,0.4,3.4,1.2,4.9c0.5,1,1.2,1.9,2,2.7
			c0.8,0.8,1.8,1.5,2.7,2c1.5,0.8,3.2,1.2,4.9,1.2c-1.2-0.9-2.4-2-3.6-3C20.7,32.1,20,31.4,19.3,30.7z"/>
		<path class="st0" d="M25,0.5C11.5,0.5,0.5,11.5,0.5,25c0,13.5,11,24.5,24.5,24.5c13.5,0,24.5-11,24.5-24.5
			C49.5,11.5,38.5,0.5,25,0.5z M24.2,10.9C28.1,10.7,32,12,35,15s4.3,6.9,4.1,10.8c-0.1,1.1-0.2,2.2-0.6,3.3c-0.4,1.3-1,2.6-1.8,3.8
			c-0.5,0.7-1,1.4-1.6,2c-0.1,0.1-0.1,0.1-0.2,0.2s-0.1,0.1-0.2,0.2c-0.9-0.4-1.9-0.9-3.2-1.7c0.3-0.3,0.7-0.6,1-0.9
			c0.3-0.3,0.6-0.6,0.9-1c0.5-0.7,1-1.4,1.3-2.1c0.6-1.4,1-2.9,1-4.4c0-1.7-0.4-3.4-1.2-4.9c-0.5-1-1.2-1.9-2-2.7
			c-0.8-0.8-1.8-1.5-2.7-2c-1.5-0.8-3.2-1.2-4.9-1.2c-1.5,0-3,0.3-4.4,1c-0.8,0.3-1.5,0.8-2.1,1.3c-0.3,0.3-0.7,0.6-1,0.9
			c-0.3,0.3-0.6,0.6-0.9,1c-0.8-1.3-1.3-2.3-1.7-3.2c0.1-0.1,0.1-0.1,0.2-0.2s0.1-0.1,0.2-0.2c0.6-0.6,1.3-1.1,2-1.6
			c1.2-0.8,2.5-1.4,3.8-1.8C22,11.1,23.1,11,24.2,10.9z M40.4,40.4c-1.2,1.2-3.7,2.1-8.7-0.4c-0.2-0.1-0.4-0.2-0.6-0.3
			c-0.7-0.3-1.3-0.7-2-1.1c-1.1,0.3-2.2,0.5-3.3,0.6C21.9,39.3,18,38,15,35s-4.3-6.9-4.1-10.8c0.1-1.1,0.2-2.2,0.6-3.3
			c-0.4-0.7-0.8-1.4-1.1-2c-0.1-0.2-0.2-0.4-0.3-0.6c-2.4-5-1.6-7.5-0.4-8.7c1.2-1.2,3.7-2.1,8.7,0.4c-1.3,0.6-2.5,1.3-3.6,2.2
			c-1.4-0.5-2.4-0.5-2.7-0.2s-0.3,1.3,0.2,2.7c0.2,0.7,0.6,1.5,1,2.4c0.5,1,1.2,2.1,2,3.4c0.5,0.7,1,1.4,1.6,2.2
			c1.3,1.7,2.9,3.6,4.9,5.5s3.8,3.6,5.5,4.9c0.8,0.6,1.5,1.1,2.2,1.6c1.2,0.8,2.4,1.5,3.4,2c0.9,0.5,1.7,0.8,2.4,1
			c1.4,0.5,2.4,0.5,2.7,0.2c0.3-0.3,0.3-1.3-0.2-2.7c0.9-1.1,1.6-2.3,2.2-3.6C42.4,36.7,41.6,39.2,40.4,40.4z"/>
	</g>
</g>
<g id="Layer_2" class="st1">
	<g class="st2">
		<path class="st0" d="M10.2,9.6C10.1,9.7,10,9.8,9.9,9.9s-0.2,0.2-0.3,0.3c0.6,1.3,1.4,2.9,2.6,4.8c0.4-0.5,0.8-1,1.3-1.5
			c0.5-0.5,1-0.9,1.5-1.3c1-0.8,2.1-1.5,3.2-2c2.1-1,4.4-1.5,6.7-1.5c2.5,0,5.1,0.6,7.4,1.7c1.5,0.8,2.9,1.8,4.2,3
			c1.2,1.2,2.3,2.7,3,4.2c1.2,2.3,1.7,4.8,1.7,7.4c0,2.3-0.5,4.6-1.5,6.7c-0.5,1.1-1.2,2.2-2,3.2c-0.4,0.5-0.8,1-1.3,1.5
			c-0.5,0.5-1,0.9-1.5,1.3c1.9,1.2,3.5,2,4.8,2.6c0.1-0.1,0.2-0.2,0.3-0.3s0.2-0.2,0.3-0.3c0.9-0.9,1.7-1.9,2.4-3
			c1.2-1.8,2.1-3.7,2.7-5.7c0.5-1.6,0.8-3.3,0.9-4.9c0.3-5.9-1.7-11.8-6.2-16.3S29.7,3.4,23.8,3.7c-1.7,0.1-3.3,0.4-4.9,0.9
			c-2,0.6-3.9,1.5-5.7,2.7C12.1,7.9,11.1,8.7,10.2,9.6z"/>
		<path class="st0" d="M47.6,35.1c-0.8,1.9-1.9,3.7-3.3,5.4c0.7,2.2,0.7,3.6,0.2,4.1c-0.5,0.5-1.9,0.5-4.1-0.2
			c-1.1-0.3-2.3-0.9-3.7-1.6c-1.5-0.8-3.2-1.8-5.1-3c-1.1-0.7-2.2-1.5-3.3-2.4c-2.6-2-5.4-4.4-8.4-7.4s-5.4-5.8-7.4-8.4
			c-0.9-1.2-1.7-2.3-2.4-3.3c-1.3-1.9-2.2-3.6-3-5.1C6.5,11.8,6,10.6,5.7,9.5C5,7.3,4.9,5.9,5.4,5.4S7.3,5,9.5,5.7
			c1.7-1.4,3.5-2.5,5.4-3.3C7.3-1.3,3.6,0,1.8,1.8C0,3.6-1.3,7.3,2.4,14.9c0.1,0.3,0.3,0.6,0.5,0.9c0.5,1,1.1,2,1.7,3
			c-0.5,1.6-0.8,3.3-0.9,4.9c-0.3,5.9,1.7,11.8,6.2,16.3s10.4,6.5,16.3,6.2c1.7-0.1,3.3-0.4,4.9-0.9c1,0.6,2,1.2,3,1.7
			c0.3,0.2,0.6,0.3,0.9,0.5c7.6,3.7,11.3,2.4,13.1,0.6S51.3,42.7,47.6,35.1z M17.7,39.5c-1.5-0.8-2.9-1.8-4.2-3
			c-1.2-1.2-2.3-2.7-3-4.2c-1.2-2.3-1.7-4.8-1.7-7.4c1.4,1.8,2.9,3.6,4.6,5.4c1,1.1,2,2.1,3.1,3.2c1.1,1.1,2.1,2.1,3.2,3.1
			c1.8,1.7,3.6,3.2,5.4,4.6C22.5,41.2,20,40.7,17.7,39.5z"/>
	</g>
</g>
</svg>
